<?xml version="1.0" encoding="utf-8"?>
<!-- Generator: Adobe Illustrator 18.1.1, SVG Export Plug-In . SVG Version: 6.00 Build 0)  -->
<svg version="1.1" id="Layer_1" xmlns="http://www.w3.org/2000/svg" xmlns:xlink="http://www.w3.org/1999/xlink" x="0px" y="0px"
	 viewBox="0 0 100 100" enable-background="new 0 0 100 100" xml:space="preserve">
<g>
	<path fill="#666666" d="M71.7,44.3c3.5,0,6.8,0.8,9.8,2.3c0.3-0.7,0.6-1.3,0.9-2c1.3-3,2-6.4,2-9.9c0-12.3-8.6-22.2-19.2-22.2
		s-19.2,10-19.2,22.2c0-12.3-8.6-22.2-19.2-22.2c-10.6,0-19.2,10-19.2,22.2c0,3.6,0.7,6.9,2,9.9c7.9,19.8,36.5,34.5,36.5,34.5
		s2.5-1.3,6.3-3.7C50.8,72.6,50,69.4,50,66C50,54,59.7,44.3,71.7,44.3z"/>
	<path fill="#25A4F4" d="M81.4,46.6c-2.9-1.5-6.3-2.3-9.8-2.3C59.7,44.3,50,54,50,66c0,3.4,0.8,6.6,2.2,9.5
		c3.5,7.2,11,12.2,19.5,12.2c12,0,21.7-9.7,21.7-21.7C93.4,57.5,88.5,50.2,81.4,46.6z M71.7,84.7C61.4,84.7,53,76.3,53,66
		s8.4-18.7,18.7-18.7c10.3,0,18.7,8.4,18.7,18.7S82,84.7,71.7,84.7z"/>
	<polygon fill="#25A4F4" points="74.3,57.8 69.3,57.8 69.3,64.7 62.7,64.7 62.7,69.3 69.3,69.3 69.3,76.4 74.3,76.4 74.3,69.3 
		80.8,69.3 80.8,64.7 74.3,64.7 	"/>
</g>
</svg>
