<?xml version="1.0" encoding="utf-8"?>
<!-- Generator: Adobe Illustrator 18.1.1, SVG Export Plug-In . SVG Version: 6.00 Build 0)  -->
<svg version="1.1" id="Layer_1" xmlns="http://www.w3.org/2000/svg" xmlns:xlink="http://www.w3.org/1999/xlink" x="0px" y="0px"
	 viewBox="0 0 100 100" enable-background="new 0 0 100 100" xml:space="preserve">
<path fill="#FFFFFF" d="M35.5,93c-0.4-8.6,0.5-11.7-5.7-16.2c-3.1-2.2-5.1-3-10-5.5c-4.8-2.3-5.2-4.4-6.1-8.6
	c-0.9-3.9-1.6-6.9-3-10.7c-1.3-3.6-1-5.7-1.1-8.9C9.5,38,9,31.3,7.4,26.9c-2.1-5.8,3.8-1.4,5.4,3c0.7,2,1.5,4.7,2.2,8.7
	c0.8,2.3,1.5,4.6,2.1,6.9c1.4,6.7,5.4,9.8,9.3,13.7c2.4,2.4,3.7,2.5,1.3-1.1c-2.5-3.8-4.7-7.6-6.2-11.8c-2.4-6.5,1.3-6.7,4.4-2.1
	c2.1,3,4.8,7.6,6.6,9.2c3.2,3,6.1,7.6,9.9,9.9c2.7,1.6,3.4,3,4.7,6.1c1.2,2.8,0.8,6.2,0.7,8.5c-0.2,4.4,0.2,9.1,0.3,15
	C44.1,93,39.2,93,35.5,93L35.5,93z M54.4,40.1c-1.1-20.3,8.9-17,22.3-20.3c3.9-1,5-5.5,3.4,4C76.5,45.4,59.4,43,55.3,42
	C55.6,40.6,54.8,39.8,54.4,40.1L54.4,40.1z M53.4,55.1c3.1-0.7,3.7-2,5-3.1c-1.1-4.9-2.6-5.8-3.6-9.6c0.1-0.4,0.2-0.7,0.3-1
	c-0.1-0.4-0.3-0.7-0.5-1c-0.1,0-0.3,0.1-0.4,0.1c-0.3-0.6-0.4-1.2-0.7-1.8c-0.6,0.1-1,1-1,1.7c0.8,5.6,1.3,6.9,1.2,10.4
	C53.7,51.9,53.5,53.2,53.4,55.1L53.4,55.1z M53.7,38.4C53.6,7.8,38.9,13.5,18.3,9.6c-6-1.2-8-7.8-4.8,6.5
	c7.2,32.3,32.8,27.2,39,25.4C51.8,39.3,52.9,38,53.7,38.4L53.7,38.4z M64.5,93c0.4-8.6-0.5-11.7,5.7-16.2c3.1-2.2,5.1-3,10-5.5
	c4.8-2.3,5.2-4.4,6.1-8.6c0.9-3.9,1.6-6.9,3-10.7c1.3-3.6,1-5.7,1.1-8.9c0.1-5.2,0.5-11.8,2.2-16.2c2.1-5.8-3.8-1.4-5.4,3
	c-0.7,2-1.5,4.7-2.2,8.7c-0.8,2.3-1.5,4.6-2.1,6.9c-1.4,6.7-5.4,9.8-9.3,13.7c-2.4,2.4-3.7,2.5-1.3-1.1c2.5-3.8,4.7-7.6,6.2-11.8
	c2.4-6.5-1.3-6.7-4.4-2.1c-2.1,3-4.8,7.6-6.6,9.2c-3.2,3-6.1,7.6-9.9,9.9c-2.7,1.6-3.4,3-4.7,6.1c-1.2,2.8-0.8,6.2-0.7,8.5
	c0.2,4.4-0.2,9.1-0.3,15C55.9,93,60.8,93,64.5,93L64.5,93z"/>
</svg>
