<?xml version="1.0" encoding="utf-8"?>
<!-- Generator: Adobe Illustrator 18.1.1, SVG Export Plug-In . SVG Version: 6.00 Build 0)  -->
<svg version="1.1" id="Layer_1" xmlns="http://www.w3.org/2000/svg" xmlns:xlink="http://www.w3.org/1999/xlink" x="0px" y="0px"
	 viewBox="0 0 100 100" enable-background="new 0 0 100 100" xml:space="preserve">
<g>
	<path fill="none" d="M79.2,58.3L79.2,58.3L65,68l-0.9-1.3L65,68c0,0,0.1,0,0.1,0.1l14.2,9.7l0,0v-4.6h16.1V62.7H79.2V58.3z"/>
	<path fill="#666666" d="M57.1,70c-16.6,0-36,0-36.1,0c-1.8,0-2.9-0.7-3.2-1.8V68V25c0-0.5,0.1-1,0.3-1.4c6.8,6,26,21.2,32.1,26
		c1,0,25.1-19.1,32.8-26c0.3,0.4,0.4,1,0.4,1.5c0,0,0,14.6,0,26.6c0,0.9,0.7,1.6,1.6,1.6s1.6-0.7,1.6-1.6c0-12,0-26.6,0-26.6
		c0-3.5-2.9-6.4-6.4-6.4H21.1c-3.5,0-6.4,2.8-6.5,6.4v43v0.4v0.2v0.2c0.7,3.1,3.7,4.5,6.4,4.4c0,0,4.9,0,11.8,0s16,0,24.3,0
		c0.9,0,1.6-0.7,1.6-1.6C58.7,70.7,58,70,57.1,70z"/>
	<path fill="#25A4F4" d="M98.5,59.6H82.4V58c0-0.8-0.1-1.5-0.5-2.2s-1.3-1.2-2.1-1.1c-1,0-1.7,0.4-2.4,1l-14.2,9.8l0,0
		c-0.8,0.5-1.7,1.3-1.7,2.6c0.1,1.3,0.9,2.1,1.7,2.7l14.2,9.7c0.7,0.4,1.4,0.8,2.4,0.9c0,0,0,0,0.1,0c0.6,0,1.4-0.3,1.8-0.9
		c0.5-0.6,0.7-1.3,0.7-2l0,0v-2h16.1L98.5,59.6L98.5,59.6z M95.4,73.2H79.2v4.6l0,0L65,68.1c0,0-0.1,0-0.1-0.1L64,66.7l0.9,1.3
		l14.2-9.8l0,0v4.5h16.1v10.4H95.4z"/>
</g>
</svg>
