<?xml version="1.0" encoding="utf-8"?>
<!-- Generator: Adobe Illustrator 18.1.1, SVG Export Plug-In . SVG Version: 6.00 Build 0)  -->
<svg version="1.1" id="Layer_1" xmlns="http://www.w3.org/2000/svg" xmlns:xlink="http://www.w3.org/1999/xlink" x="0px" y="0px"
	 viewBox="0 0 100 100" enable-background="new 0 0 100 100" xml:space="preserve">
<g>
	<path fill="#25A4F4" d="M94.2,61.9c0-6.7-5.7-18.9-14.3-21.8c-0.5-0.2-1-0.6-1.2-1.3c-0.2-0.8,0.1-1.6,0.9-2.4
		c1.1-1.2,6.2-8.2,6.2-13.2c0-9.4-7.6-17-17-17c-1.5,0-3,0.2-4.4,0.6c7.1,4.5,11.9,12.4,11.9,21.4c0,7.1-6.3,16-8.4,18.6
		c9.6,4.2,16.3,15.7,18.4,24.9C91.5,69.7,94.2,66.5,94.2,61.9z"/>
	<path fill="#25A4F4" d="M15.2,72.1c2-9.3,8.8-21.2,18.6-25.3c-3.1-3.2-8.1-11.9-8.1-18.6c0-8.9,4.6-16.7,11.5-21.2
		c-1.7-0.5-3.4-0.9-5.3-0.9c-9.4,0-17,7.6-17,17c0,5,4.6,12,5.8,12.9c1.3,0.6,1.5,1.5,1.4,2c0,0.9-0.7,1.7-1.9,2.1
		c-8.5,3-14.1,15.1-14.1,21.8C6.2,66.8,9.2,70.1,15.2,72.1z"/>
	<path fill="#666666" d="M65.2,49.2c-0.5-0.2-1.1-0.6-1.3-1.4c-0.3-1.3,0.7-2.3,1-2.6c1.4-1.5,8-10.7,8-17c0-12.1-9.9-22-22-22
		c-12.1,0-22,9.9-22,22c0,6.6,6.2,15.8,7.7,16.8c1.4,0.6,1.6,1.6,1.6,2.2c-0.1,1.4-1.5,2-2.2,2.2c-10.9,3.9-18.2,19.4-18.2,28
		c0,10.7,10.8,15.9,33,15.9c22.2,0,33-5.2,33-15.9C83.7,68.7,76.3,53.1,65.2,49.2z"/>
</g>
</svg>
