<?xml version="1.0" encoding="utf-8"?>
<!-- Generator: Adobe Illustrator 18.1.1, SVG Export Plug-In . SVG Version: 6.00 Build 0)  -->
<svg version="1.1" id="Layer_1" xmlns="http://www.w3.org/2000/svg" xmlns:xlink="http://www.w3.org/1999/xlink" x="0px" y="0px"
	 viewBox="0 0 100 100" enable-background="new 0 0 100 100" xml:space="preserve">
<path fill="#FFFFFF" d="M23.2,48.7c-0.8-3.5-7.2-3.1-7.4,0.8c-0.5,18.8,8.1,36.8,30.4,37.7c0,1.6,0,2.3,0,3.9
	c-8,0.4-11.3,2-14.8,4.8h37.1c-4-3-7.6-4.6-14.5-5c-0.1-1.4,0-2.4-0.1-3.8c23.4-2.1,30.8-17.5,30.3-37.7c-0.1-5-8.7-4.3-8.2,0.8
	C76,97,24,96.3,23.2,48.7L23.2,48.7z M51.5,4c1.1,0.1,2.3,0.4,3.3,0.7v32.2H58V6.2c1.2,0.8,2.3,1.6,3.3,2.6v28.1h3.2V13.1
	c4.9,8.4,6,20.5,4.5,27.8H30.8c-1.4-7.3-0.4-19.4,4.5-27.8v23.8h3.2V8.8c1-1,2.1-2,3.3-2.6v30.7H45V4.7c1.1-0.3,2.2-0.6,3.4-0.7v33
	h3.2V4L51.5,4z M50,81.2c17.2,0,21.5-24.9,19.2-37H30.8C28.5,56.3,32.8,81.2,50,81.2L50,81.2z"/>
</svg>
