<?xml version="1.0" encoding="utf-8"?>
<!-- Generator: Adobe Illustrator 18.1.1, SVG Export Plug-In . SVG Version: 6.00 Build 0)  -->
<svg version="1.1" id="Layer_1" xmlns="http://www.w3.org/2000/svg" xmlns:xlink="http://www.w3.org/1999/xlink" x="0px" y="0px"
	 viewBox="200 0 100 100" enable-background="new 200 0 100 100" xml:space="preserve">
<g>
	<path fill="#FFFFFF" d="M250,7c-19,0-34.4,15.4-34.4,34.4c0,9.5,4.2,17.7,10.1,24.3L250,93l24.3-27.3c5.8-6.6,10.1-14.8,10.1-24.3
		C284.4,22.4,269,7,250,7z M270.8,62.2c-5.6,5.6-12.9,8.6-20.8,8.6c-7.9,0-15.2-3.1-20.8-8.6c-5.6-5.6-8.6-12.9-8.6-20.8
		c0-16.2,13.2-29.4,29.4-29.4s29.4,13.2,29.4,29.4C279.4,49.2,276.3,56.6,270.8,62.2z"/>
	<path fill="#FFFFFF" d="M250,13.9c-15.2,0-27.5,12.3-27.5,27.5c0,7.3,2.9,14.2,8,19.4c5.2,5.2,12.1,8.1,19.4,8.1
		c7.3,0,14.2-2.9,19.4-8.1c5.2-5.2,8-12.1,8-19.4C277.5,26.2,265.2,13.9,250,13.9z M261.2,58.1L250,49.9l-11.2,8.2l4.3-13.2
		l-11.3-8.2l13.9,0l4.3-13.2l4.3,13.2l13.9,0l-11.3,8.2L261.2,58.1z"/>
</g>
</svg>
