<?xml version="1.0" encoding="utf-8"?>
<!-- Generator: Adobe Illustrator 18.1.1, SVG Export Plug-In . SVG Version: 6.00 Build 0)  -->
<svg version="1.1" id="Layer_1" xmlns="http://www.w3.org/2000/svg" xmlns:xlink="http://www.w3.org/1999/xlink" x="0px" y="0px"
	 viewBox="0 0 100 100" enable-background="new 0 0 100 100" xml:space="preserve">
<path fill="#FFFFFF" d="M31.6,68c-0.2-7.8,0-14.4-0.1-20.9C1.6,45.6,10.1,9.2,32.4,16.7c7.1-16.5,31.2-15.3,36.5,2
	c20.7-3.9,24.7,27.1,2.8,29.3v19.2C60.3,60.9,42.4,61,31.6,68L31.6,68z M21.2,76.9c0,0-3.7,2.6-1.3,5.5c0.8,1,2.5,1,3.7,0.8
	c2.1-0.4,2.9-2.1,2.8-4.3c-0.6-5.4-13.8-3.4-8.3,5.6c3.3,5.4,11.1-0.9,14.3-3.7c6.4-5.5,17.4-11.7,19-1.7c1.7-9.9,12.6-3.9,19,1.7
	c3.2,2.8,11,9.1,14.3,3.7c5.5-9-7.7-10.9-8.3-5.6c-0.2,2.2,0.6,3.9,2.8,4.3c1.1,0.2,2.8,0.2,3.7-0.8c2.5-2.9-1.3-5.5-1.3-5.5
	c4.5,2.5,2.7,8.2-2.5,7.1c-5.3-1.2-4.4-8.8,1.6-9.2c12.8,0.6,7.2,21-9.3,20.2c-7.8-0.4-15.1-6.2-20-12.8
	c-5.1,7.4-14.2,13.4-23.5,12.1c-15.1-2.2-17.2-19.5-5.9-19.7c6,0.5,7,8,1.6,9.2C18.6,85.1,16.7,79.4,21.2,76.9L21.2,76.9z"/>
</svg>
