<?xml version="1.0" encoding="utf-8"?>
<!-- Generator: Adobe Illustrator 18.1.1, SVG Export Plug-In . SVG Version: 6.00 Build 0)  -->
<svg version="1.1" id="Layer_1" xmlns="http://www.w3.org/2000/svg" xmlns:xlink="http://www.w3.org/1999/xlink" x="0px" y="0px"
	 viewBox="0 0 100 100" enable-background="new 0 0 100 100" xml:space="preserve">
<g>
	<path fill="#FFFFFF" d="M87,18.5H13c-1.1,0-2,0.9-2,2v59c0,1.1,0.9,2,2,2h74c1.1,0,2-0.9,2-2v-59C89,19.4,88.1,18.5,87,18.5z
		 M17.1,75.5v-51H83v51H17.1z"/>
	<polygon fill="#FFFFFF" points="63.4,47.2 55.8,59.7 53.1,64 48.9,57.3 39.7,42.5 30.5,57.3 21.3,72.1 39.7,72.1 48,72.1 
		58.1,72.1 63.4,72.1 78.8,72.1 71.1,59.7 	"/>
	<circle fill="#FFFFFF" cx="67.6" cy="36.1" r="6.1"/>
	<path fill="#FFFFFF" d="M27.6,42.4h12.3c2.5,0,4.5-2,4.5-4.5s-2-4.5-4.5-4.5h-0.1c-0.8-2.4-3.1-4.1-5.8-4.1s-5,1.7-5.8,4.1h-0.6
		c-2.5,0-4.5,2-4.5,4.5C23.1,40.3,25.1,42.4,27.6,42.4z"/>
</g>
</svg>
