<?xml version="1.0" encoding="utf-8"?>
<!-- Generator: Adobe Illustrator 18.1.1, SVG Export Plug-In . SVG Version: 6.00 Build 0)  -->
<svg version="1.1" id="Layer_1" xmlns="http://www.w3.org/2000/svg" xmlns:xlink="http://www.w3.org/1999/xlink" x="0px" y="0px"
	 viewBox="0 0 100 100" enable-background="new 0 0 100 100" xml:space="preserve">
<g>
	<path fill="#999999" d="M50,61.5c-1.2,0-2.5-0.4-3.4-1.1L13.2,33.5c-0.6-0.5-0.7-1.3-0.2-1.9s1.3-0.7,1.9-0.2l33.3,26.8
		c1,0.8,2.5,0.8,3.4,0l33.4-26.8c0.6-0.5,1.4-0.4,1.9,0.2s0.4,1.4-0.2,1.9L53.4,60.3C52.4,61.1,51.2,61.5,50,61.5z"/>
	<path fill="#747474" d="M90.9,82.2H9.1c-2.8,0-5.1-2.3-5.1-5.1V26.8c0-2.8,2.3-5.1,5.1-5.1H91c2.8,0,5.1,2.3,5.1,5.1v18.9
		c0,0.1,0,0.2,0,0.3c0,0.1,0,0.2,0,0.3v30.8C96,80,93.7,82.2,90.9,82.2z M9.1,25.2c-0.9,0-1.6,0.8-1.6,1.6v50.3
		c0,0.9,0.8,1.6,1.6,1.6H91c0.9,0,1.6-0.8,1.6-1.6V46.3c0-0.1,0-0.2,0-0.3c0-0.1,0-0.2,0-0.3V26.8c0-0.9-0.8-1.6-1.6-1.6H9.1z"/>
</g>
</svg>
