<?xml version="1.0" encoding="utf-8"?>
<!-- Generator: Adobe Illustrator 18.1.1, SVG Export Plug-In . SVG Version: 6.00 Build 0)  -->
<svg version="1.1" id="Layer_1" xmlns="http://www.w3.org/2000/svg" xmlns:xlink="http://www.w3.org/1999/xlink" x="0px" y="0px"
	 viewBox="0 0 100 100" enable-background="new 0 0 100 100" xml:space="preserve">
<g>
	<path fill="#747474" d="M45.7,97.8c-0.1,0-0.1,0-0.2,0c-11.8-1.1-22.9-6.5-30.9-15.3C6.5,73.6,2,62.1,2,50s4.5-23.6,12.7-32.5
		C22.7,8.7,33.8,3.2,45.6,2.2c1-0.1,1.8,0.6,1.9,1.6c0.1,1-0.6,1.8-1.6,1.9C22.9,7.9,5.7,26.9,5.7,50s17.3,42.1,40.2,44.2
		c1,0.1,1.7,1,1.6,1.9C47.4,97.1,46.6,97.8,45.7,97.8z"/>
	<path fill="#747474" d="M54.3,97.8c-0.9,0-1.7-0.7-1.8-1.6c-0.1-1,0.6-1.8,1.6-1.9c23-2.1,40.2-21.1,40.2-44.2S77.1,7.9,54.1,5.8
		c-1-0.1-1.7-1-1.6-1.9c0.1-1,1-1.7,1.9-1.6c11.8,1.1,22.9,6.5,30.9,15.3C93.5,26.4,98,37.9,98,50s-4.5,23.6-12.7,32.5
		c-8.1,8.8-19.1,14.3-30.9,15.3C54.4,97.8,54.3,97.8,54.3,97.8z"/>
	<path fill="#999999" d="M47,89.9h-0.1C26.2,88.3,10,70.8,10,50s16.2-38.3,37-39.9c0.8-0.1,1.5,0.5,1.5,1.3c0.1,0.8-0.5,1.5-1.3,1.5
		C27.9,14.5,12.9,30.7,12.9,50s15,35.5,34.3,37c0.8,0.1,1.4,0.7,1.3,1.5C48.5,89.3,47.9,89.9,47,89.9z"/>
	<path fill="#999999" d="M52.9,89.9c-0.7,0-1.4-0.6-1.4-1.3c-0.1-0.8,0.5-1.5,1.3-1.5C72,85.6,87.1,69.3,87.1,50S72,14.5,52.8,13
		c-0.8-0.1-1.4-0.7-1.3-1.5c0.1-0.8,0.7-1.4,1.5-1.3C73.7,11.6,90,29.2,90,50S73.8,88.4,53,89.9C52.9,89.9,52.9,89.9,52.9,89.9z"/>
	<g>
		<path fill="#25A4F4" d="M63.7,53.4c0,3.5-2.2,4.4-4.6,4.4H41.9v15h-3.7V28.7h25.4V53.4z M60,54.3V32.1H41.9v22.2H60z"/>
	</g>
</g>
</svg>
