<?xml version="1.0" encoding="utf-8"?>
<!-- Generator: Adobe Illustrator 18.1.1, SVG Export Plug-In . SVG Version: 6.00 Build 0)  -->
<svg version="1.1" id="Layer_1" xmlns="http://www.w3.org/2000/svg" xmlns:xlink="http://www.w3.org/1999/xlink" x="0px" y="0px"
	 viewBox="0 0 100 100" enable-background="new 0 0 100 100" xml:space="preserve">
<g>
	<path fill="#747474" d="M73.7,51.8L73,42.9c0-11.7-6.6-21.2-16.3-24.5v-6c0-4.3-3.5-7.7-7.7-7.7c-4.3,0-7.7,3.5-7.7,7.7v5.9
		c-9.8,3.3-16.5,12.8-16.5,24.6l-0.5,9c-0.7,19.1-8.8,29-8.9,29.1c-0.5,0.6-0.6,1.4-0.3,2c0.3,0.7,1,1.1,1.7,1.1h19.5
		c0.8,6.3,6.2,11.2,12.7,11.2c6.5,0,11.9-4.9,12.7-11.2h19.5c0.7,0,1.4-0.4,1.7-1.1c0.3-0.7,0.2-1.5-0.3-2
		C82.5,80.9,74.4,71,73.7,51.8z M45.1,12.4c0-2.2,1.8-3.9,3.9-3.9s3.9,1.8,3.9,3.9v5c-1.3-0.2-2.7-0.4-4-0.4c-1.3,0-2.5,0.1-3.8,0.3
		V12.4z M49,91.5c-4.4,0-8.1-3.2-8.8-7.4h17.6C57,88.3,53.4,91.5,49,91.5z M20.4,80.3c2.7-4.5,7.1-14,7.6-28.2l0.5-9.1
		c0-12.8,8.5-22.1,20.3-22.1c11.8,0,20.3,9.3,20.3,22.1c0,0.1,0,0.1,0,0.2l0.7,8.9c0.6,14.3,4.9,23.7,7.7,28.3H20.4z"/>
	<path fill="#25A4F4" d="M12.1,41.3c0.8-0.7,0.8-1.9,0.1-2.7c-0.7-0.8-1.9-0.8-2.7-0.1c-9.6,9.2-10,24.5-0.8,34.1
		c0.4,0.4,0.9,0.6,1.4,0.6c0.5,0,1-0.2,1.3-0.5c0.8-0.7,0.8-1.9,0.1-2.7C3.7,61.9,4,49,12.1,41.3z"/>
	<path fill="#25A4F4" d="M17.1,64.6c0.9-0.6,1-1.8,0.4-2.7c-2.9-4-2.7-9.4,0.5-13.1c0.7-0.8,0.6-2-0.2-2.7c-0.8-0.7-2-0.6-2.7,0.2
		c-4.3,5.1-4.6,12.5-0.7,17.9c0.4,0.5,1,0.8,1.6,0.8C16.4,65,16.8,64.9,17.1,64.6z"/>
	<path fill="#25A4F4" d="M91.3,38.6c-0.7-0.8-1.9-0.8-2.7-0.1c-0.8,0.7-0.8,1.9-0.1,2.7c7.7,8.1,7.4,21-0.6,28.7
		c-0.8,0.7-0.8,1.9-0.1,2.7c0.4,0.4,0.9,0.6,1.4,0.6c0.5,0,1-0.2,1.3-0.5C100.2,63.5,100.5,48.2,91.3,38.6z"/>
	<path fill="#25A4F4" d="M85.6,47c-0.6-0.9-1.8-1-2.7-0.4c-0.9,0.6-1,1.8-0.4,2.7c2.9,4,2.7,9.4-0.5,13.1c-0.7,0.8-0.6,2,0.2,2.7
		c0.4,0.3,0.8,0.5,1.2,0.5c0.5,0,1.1-0.2,1.5-0.7C89.2,59.7,89.5,52.4,85.6,47z"/>
</g>
</svg>
