<?xml version="1.0" encoding="utf-8"?>
<!-- Generator: Adobe Illustrator 18.1.1, SVG Export Plug-In . SVG Version: 6.00 Build 0)  -->
<svg version="1.1" id="Layer_1" xmlns="http://www.w3.org/2000/svg" xmlns:xlink="http://www.w3.org/1999/xlink" x="0px" y="0px"
	 viewBox="0 0 100 100" enable-background="new 0 0 100 100" xml:space="preserve">
<path fill="#FFFFFF" d="M35.3,8.7C18.6,8.7,5,22.3,5,39.1c0,16.7,13.6,30.3,30.3,30.3c7.7,0,14.8-2.9,20.1-7.7l6.7,5.8
	c0.8,0.7,2.1,0.6,2.9-0.2l2.7-3.1c0.7-0.8,0.6-2.1-0.2-2.9l-6.7-5.8c3.1-4.8,4.9-10.4,4.9-16.5C65.7,22.3,52,8.7,35.3,8.7z
	 M35.3,61.5c-12.4,0-22.4-10.1-22.4-22.4c0-12.4,10.1-22.5,22.4-22.5c12.4,0,22.5,10.1,22.5,22.5C57.8,51.4,47.7,61.5,35.3,61.5z"/>
<path fill="#FFFFFF" d="M65.7,72.6l21,17.5c0.9,0.7,2.2,0.6,2.9-0.2l4.9-5.7c0.7-0.8,0.6-2.1-0.2-2.8l-21-17.5
	c-0.9-0.7-2.2-0.6-2.9,0.2l-4.9,5.7C64.7,70.6,64.8,71.9,65.7,72.6z"/>
</svg>
