<?xml version="1.0" encoding="utf-8"?>
<!-- Generator: Adobe Illustrator 18.1.1, SVG Export Plug-In . SVG Version: 6.00 Build 0)  -->
<svg version="1.1" id="Layer_1" xmlns="http://www.w3.org/2000/svg" xmlns:xlink="http://www.w3.org/1999/xlink" x="0px" y="0px"
	 viewBox="0 0 100 100" enable-background="new 0 0 100 100" xml:space="preserve">
<g>
	<circle fill="#FFFFFF" cx="42.3" cy="26.7" r="21.7"/>
	<g>
		<path fill="#FFFFFF" d="M96,68.7L91.4,68c-0.3-1.4-0.8-2.6-1.4-3.8l2.9-3.6c0.6-0.8,0.6-1.9-0.1-2.6l-1.8-2
			c-0.7-0.7-1.7-0.9-2.6-0.4l-3.9,2.4c-1.7-1.2-3.6-2.1-5.7-2.6l-0.8-4.6c-0.2-1-1-1.7-2-1.7h-2.7c-1,0-1.8,0.7-2,1.7l-0.8,4.6
			c-1.7,0.4-3.3,1.1-4.8,2l-3.7-2.6c-0.8-0.6-1.9-0.5-2.6,0.2l-1.9,1.9c-0.7,0.7-0.8,1.8-0.2,2.6l2.6,3.7c-0.9,1.5-1.6,3.1-2,4.8
			l-4.6,0.8c-1,0.2-1.7,1-1.7,2v2.7c0,1,0.7,1.8,1.7,2l4.6,0.8c0.3,1.4,0.9,2.8,1.5,4l-2.9,3.6c-0.6,0.8-0.6,1.9,0.1,2.6l1.8,2
			c0.7,0.7,1.7,0.9,2.6,0.4l3.9-2.5c1.7,1.1,3.6,2,5.6,2.5l0.8,4.6c0.2,1,1,1.7,2,1.7h2.7c1,0,1.8-0.7,2-1.7l0.8-4.6
			c1.7-0.4,3.3-1.1,4.8-2l3.9,2.8c0.8,0.6,1.9,0.5,2.6-0.2l1.9-1.9c0.7-0.7,0.8-1.8,0.2-2.6L89.4,81c0.9-1.5,1.6-3.1,2-4.8l4.5-0.8
			c1-0.2,1.7-1,1.7-2v-2.7C97.6,69.7,96.9,68.9,96,68.7L96,68.7z M74.8,80.7c-4.8,0-8.6-3.9-8.6-8.6c0-4.8,3.9-8.6,8.6-8.6
			c4.8,0,8.6,3.9,8.6,8.6C83.4,76.8,79.5,80.7,74.8,80.7L74.8,80.7z M74.8,80.7"/>
	</g>
	<path fill="#FFFFFF" d="M50.6,92.1c-1.4-1.4-1.9-3.5-1-4.8l3.7-5.7c-0.2-0.4-0.3-0.7-0.5-1.1L46.2,79c-1.6-0.3-2.7-2.1-2.7-4.1v-1
		v-3.7v-1c0-2,1.2-3.8,2.7-4.1l6.7-1.4c0.2-0.4,0.3-0.8,0.5-1.2l-3.7-5.6c-0.6-0.9-0.6-2.1-0.1-3.2c-2.4-0.4-4.8-0.7-7.4-0.7
		c-22,0-39.9,17.9-39.9,39.9h49.1L50.6,92.1z"/>
</g>
</svg>
