<?xml version="1.0" encoding="utf-8"?>
<!-- Generator: Adobe Illustrator 18.1.1, SVG Export Plug-In . SVG Version: 6.00 Build 0)  -->
<svg version="1.1" id="Layer_1" xmlns="http://www.w3.org/2000/svg" xmlns:xlink="http://www.w3.org/1999/xlink" x="0px" y="0px"
	 viewBox="0 0 30 30" enable-background="new 0 0 30 30" xml:space="preserve">
<path fill="#FFFFFF" d="M28,3.4L26.6,2c-0.2-0.2-0.5-0.2-0.7,0L15,12.9L4.1,2C3.9,1.8,3.6,1.8,3.4,2L2,3.4C1.8,3.6,1.8,3.9,2,4.1
	L12.9,15L2,25.9c-0.2,0.2-0.2,0.5,0,0.7L3.4,28c0.2,0.2,0.5,0.2,0.7,0L15,17.1L25.9,28c0.2,0.2,0.5,0.2,0.7,0l1.4-1.4
	c0.2-0.2,0.2-0.5,0-0.7L17.1,15L28,4.1C28.2,3.9,28.2,3.6,28,3.4z"/>
</svg>
