<?xml version="1.0" encoding="utf-8"?>
<!-- Generator: Adobe Illustrator 18.1.1, SVG Export Plug-In . SVG Version: 6.00 Build 0)  -->
<svg version="1.1" id="Layer_1" xmlns="http://www.w3.org/2000/svg" xmlns:xlink="http://www.w3.org/1999/xlink" x="0px" y="0px"
	 viewBox="0 0 100 100" enable-background="new 0 0 100 100" xml:space="preserve">
<g>
	<path fill="none" d="M80.6,58.4v4.5H64.4v10.4h16.1V78l0,0l14.3-9.8c0,0,0.1,0,0.1-0.1l0.9-1.3L95,68.1L80.6,58.4z"/>
	<path fill="#666666" d="M56.9,70.1c-16.6,0-36,0-36.1,0c-1.8,0-2.9-0.7-3.2-1.8v-0.2v-43c0-0.5,0.1-1,0.4-1.4
		c6.8,6,26.1,21.2,32.1,26c1,0,25.1-19.1,32.8-26.1c0.3,0.4,0.4,1,0.4,1.5c0,0,0,14.6,0,26.6c0,0.9,0.7,1.6,1.6,1.6s1.6-0.7,1.6-1.6
		c0-12,0-26.6,0-26.6c0-3.5-2.9-6.4-6.4-6.4H20.9c-3.5,0-6.4,2.8-6.5,6.4v43.1v0.4v0.2v0.2c0.7,3.1,3.7,4.5,6.4,4.4
		c0,0,4.9,0,11.8,0s16,0,24.3,0c0.9,0,1.6-0.7,1.6-1.6C58.6,70.8,57.8,70.1,56.9,70.1z"/>
	<path fill="#25A4F4" d="M96.7,65.5L96.7,65.5l-14.3-9.8c-0.6-0.4-1.4-0.9-2.4-1c-0.8,0-1.7,0.4-2.1,1.1c-0.4,0.7-0.5,1.4-0.5,2.2
		v1.5H61.3v16.8h16.1v2l0,0c0,0.7,0.2,1.4,0.7,2c0.5,0.6,1.3,0.9,1.8,0.9c0,0,0,0,0.1,0c1,0,1.8-0.4,2.5-0.9l14.2-9.5
		c0.8-0.5,1.7-1.3,1.8-2.7C98.4,66.8,97.5,66.1,96.7,65.5z M95,68.2C94.9,68.2,94.9,68.2,95,68.2l-14.4,9.7l0,0v-4.6H64.4V62.8h16.1
		v-4.6L95,68.2l0.9-1.3L95,68.2z"/>
</g>
</svg>
