<?xml version="1.0" encoding="utf-8"?>
<!-- Generator: Adobe Illustrator 18.1.1, SVG Export Plug-In . SVG Version: 6.00 Build 0)  -->
<svg version="1.1" id="Layer_1" xmlns="http://www.w3.org/2000/svg" xmlns:xlink="http://www.w3.org/1999/xlink" x="0px" y="0px"
	 viewBox="0 0 100 100" enable-background="new 0 0 100 100" xml:space="preserve">
<g>
	<path fill="#FFFFFF" d="M92.1,23.8c1.4-1.4,1.4-3.8,0-5.2L79.5,6.1c-1.4-1.4-3.8-1.4-5.2,0L16.9,63.5c-0.3,0.3-0.6,0.7-0.7,1.1
		L5.3,87.9C4.7,89.3,5,91,6.1,92.1c0.7,0.7,1.6,1.1,2.6,1.1c0.5,0,1.1-0.1,1.5-0.3L33.6,82c0.4-0.2,0.7-0.4,1.1-0.7L92.1,23.8z
		 M76.9,13.9l7.4,7.4L72.7,32.8l-7.4-7.4L76.9,13.9z M30,75.6l-13.7,6.4l6.4-13.7l37.6-37.6l7.4,7.4L30,75.6z"/>
	<path fill="#FFFFFF" d="M89.5,84H40.7c-3,0-5.5,2.5-5.5,5.5c0,3,2.5,5.5,5.5,5.5h48.8c3,0,5.5-2.5,5.5-5.5C95,86.4,92.5,84,89.5,84
		z"/>
</g>
</svg>
