<?xml version="1.0" encoding="utf-8"?>
<!-- Generator: Adobe Illustrator 18.1.1, SVG Export Plug-In . SVG Version: 6.00 Build 0)  -->
<svg version="1.1" id="Layer_1" xmlns="http://www.w3.org/2000/svg" xmlns:xlink="http://www.w3.org/1999/xlink" x="0px" y="0px"
	 viewBox="0 0 100 100" enable-background="new 0 0 100 100" xml:space="preserve">
<g>
	<path fill="none" d="M20.9,88.8h29.9c0-9.3,0-18.7,0-28c0-1.1,0.9-2,2-2c9.2,0,18.3,0,27.5,0V12.2H20.9V88.8z M30.1,25.3h41v2.9
		h-41V25.3z M30.1,32.1h41V35h-41V32.1z M30.1,38.9h41v2.9h-41V38.9z"/>
	<path fill="#666666" d="M82.6,7.5H18.6h-2.4v2.4v81.3v2.4h2.4h36.2L85,62.7V9.8V7.5H82.6z M80.3,58.8c-9.2,0-18.3,0-27.5,0
		c-1.1,0-2,0.9-2,2c0,9.3,0,18.7,0,28H20.9V12.2h59.3V58.8z"/>
	<rect x="30.1" y="25.3" fill="#25A4F4" width="41" height="2.9"/>
	<rect x="30.1" y="34.1" fill="#25A4F4" width="41" height="2.9"/>
	<rect x="30.1" y="42.9" fill="#25A4F4" width="41" height="2.9"/>
</g>
</svg>
