<?xml version="1.0" encoding="utf-8"?>
<!-- Generator: Adobe Illustrator 18.1.1, SVG Export Plug-In . SVG Version: 6.00 Build 0)  -->
<svg version="1.1" id="Layer_1" xmlns="http://www.w3.org/2000/svg" xmlns:xlink="http://www.w3.org/1999/xlink" x="0px" y="0px"
	 viewBox="0 0 100 100" enable-background="new 0 0 100 100" xml:space="preserve">
<path fill-rule="evenodd" clip-rule="evenodd" fill="#FFFFFF" d="M49.4,67.6c-10.3,0-18.7-8.4-18.7-18.7c0-10.3,8.4-18.7,18.7-18.7
	c10.3,0,18.7,8.4,18.7,18.7C68.1,59.2,59.7,67.6,49.4,67.6L49.4,67.6z M49.4,89.9c-22.6,0-41-18.4-41-41c0-22.6,18.4-41,41-41
	c22.6,0,41,18.4,41,41C90.4,71.5,72.1,89.9,49.4,89.9L49.4,89.9z M49.4,64.4c8.6,0,15.5-6.9,15.5-15.5c0-8.6-6.9-15.5-15.5-15.5
	c-8.6,0-15.5,6.9-15.5,15.5C33.9,57.4,40.9,64.4,49.4,64.4L49.4,64.4z M49.4,65.6c-9.2,0-16.7-7.5-16.7-16.7
	c0-9.2,7.5-16.7,16.7-16.7c9.2,0,16.7,7.5,16.7,16.7C66.1,58.1,58.6,65.6,49.4,65.6L49.4,65.6z M54.6,69.1c2.5-0.4,5-1.5,6.8-3.1
	c5.1,4.6,6.3,5.8,12.7,11.5c-4.7,4.3-10.1,7.2-16.5,8.6C56.1,77.8,55.8,75.9,54.6,69.1L54.6,69.1z M20.7,23.1
	c6.6-7,17.2-12.7,29.4-12.8c-0.6,8-0.7,10-1.5,17.5c-6.8,0.3-10.4,2-14.8,6.9C27.8,29.6,26.8,28.7,20.7,23.1L20.7,23.1z M49.4,54
	c-2.8,0-5.1-2.3-5.1-5.1c0-2.8,2.3-5.1,5.1-5.1c2.8,0,5.1,2.3,5.1,5.1C54.6,51.7,52.3,54,49.4,54L49.4,54z"/>
</svg>
