<?xml version="1.0" encoding="utf-8"?>
<!-- Generator: Adobe Illustrator 18.1.1, SVG Export Plug-In . SVG Version: 6.00 Build 0)  -->
<svg version="1.1" id="Layer_1" xmlns="http://www.w3.org/2000/svg" xmlns:xlink="http://www.w3.org/1999/xlink" x="0px" y="0px"
	 viewBox="0 0 100 100" enable-background="new 0 0 100 100" xml:space="preserve">
<g>
	<polygon fill="#FFFFFF" points="52.7,6.8 52.7,24.6 79.1,15.6 	"/>
	<path fill="#FFFFFF" d="M42.3,79.8H50h7.7l7.9-27.3H51.3V6.8h-2.8v45.7H34.4L42.3,79.8z M49.6,59.2h0.4c3.8,0.1,6.8,3.1,6.8,7
		s-3.1,7-7,7s-7-3.1-7-7S45.9,59.3,49.6,59.2z"/>
	<path fill="#FFFFFF" d="M67.1,52.5L67,52.9l-8,27.4l-0.3,1h-1.1H50h-7.7h-1.1l-0.2-1L33.1,53l-0.2-0.4H6c0,0,1.3,3.6,3.9,8.7
		c6,11.9,19.3,32,40.1,32s34.1-20,40.1-32c2.6-5.1,3.9-8.7,3.9-8.7H67.1z"/>
</g>
</svg>
