<?xml version="1.0" encoding="utf-8"?>
<!-- Generator: Adobe Illustrator 18.1.1, SVG Export Plug-In . SVG Version: 6.00 Build 0)  -->
<svg version="1.1" id="Layer_1" xmlns="http://www.w3.org/2000/svg" xmlns:xlink="http://www.w3.org/1999/xlink" x="0px" y="0px"
	 viewBox="0 0 100 100" enable-background="new 0 0 100 100" xml:space="preserve">
<path fill="#FFFFFF" d="M89.4,47.8h-1.2V20.1H11.7v27.9h-1.1H7v17.9v3.2v10.8h7.3l3.2-10.8h64.9l3.2,10.8H93V69.1v-3.2v-18H89.4z
	 M52.9,25.8c7.9,1.2,15.9,1.2,23.8,0c0,4.1,0,8.2,0,12.2c-8,0-15.9,0-23.8,0C52.9,33.9,52.9,29.8,52.9,25.8z M23.2,25.8
	c7.9,1.2,15.9,1.2,23.8,0c0,4.1,0,8.2,0,12.2c-8,0-15.9,0-23.8,0C23.2,33.9,23.2,29.8,23.2,25.8z M82.3,48.7H17.7v-0.9v-2.2
	c0-3.4,3-6.3,6.6-6.3h51.4c3.7,0,6.6,2.8,6.6,6.3v2.2C82.3,47.8,82.3,48.7,82.3,48.7z"/>
</svg>
