<?xml version="1.0" encoding="utf-8"?>
<!-- Generator: Adobe Illustrator 18.1.1, SVG Export Plug-In . SVG Version: 6.00 Build 0)  -->
<svg version="1.1" id="Layer_1" xmlns="http://www.w3.org/2000/svg" xmlns:xlink="http://www.w3.org/1999/xlink" x="0px" y="0px"
	 viewBox="0 0 100 100" enable-background="new 0 0 100 100" xml:space="preserve">
<path fill-rule="evenodd" clip-rule="evenodd" fill="#FFFFFF" d="M82.2,31.4h-5.4v25.1c0,6.6-5.4,12-12,12h-26l-3.5,2.8
	c1.1,2.3,3.4,3.9,6.2,3.9h24.4l12.7,9.9v-9.9h3.8c3.7,0,6.8-3.1,6.8-6.8V38.2C89,34.5,85.9,31.4,82.2,31.4L82.2,31.4z M18.7,14.8h46
	c4.2,0,7.7,3.5,7.7,7.7v34.1c0,4.2-3.5,7.7-7.7,7.7H37.2L22.9,75.4V64.2h-4.3c-4.2,0-7.7-3.5-7.7-7.7V22.5
	C11,18.2,14.5,14.8,18.7,14.8z"/>
</svg>
