<?xml version="1.0" encoding="utf-8"?>
<!-- Generator: Adobe Illustrator 18.1.1, SVG Export Plug-In . SVG Version: 6.00 Build 0)  -->
<svg version="1.1" id="Layer_1" xmlns="http://www.w3.org/2000/svg" xmlns:xlink="http://www.w3.org/1999/xlink" x="0px" y="0px"
	 viewBox="0 0 100 100" enable-background="new 0 0 100 100" xml:space="preserve">
<path fill="#348FE2" d="M11.7,80.3h76.5c1.8,0,3.3-1.5,3.3-3.3V28.9c0-1.8-1.5-3.3-3.3-3.3H11.7c-1.8,0-3.3,1.5-3.3,3.3V77
	C8.5,78.9,9.9,80.3,11.7,80.3z M17.1,30.7l1.2-0.6c0.1,0,0.2,0,0.4,0h62.6c0.1,0,0.2,0,0.4,0l1.2,0.6l-31,21.5l34.3,23.1L50,56.7
	L13.9,75.2l34.2-23.1L17.1,30.7z"/>
</svg>
