<?xml version="1.0" encoding="utf-8"?>
<!-- Generator: Adobe Illustrator 18.1.1, SVG Export Plug-In . SVG Version: 6.00 Build 0)  -->
<svg version="1.1" id="Layer_1" xmlns="http://www.w3.org/2000/svg" xmlns:xlink="http://www.w3.org/1999/xlink" x="0px" y="0px"
	 viewBox="0 0 100 100" enable-background="new 0 0 100 100" xml:space="preserve">
<g>
	<path fill="#FFFFFF" d="M68.8,11.2c-8.3,0-15.2,6.8-15.2,15.2s15.2,28.1,15.2,28.1s15.2-19.8,15.2-28.1S77.2,11.2,68.8,11.2z
		 M68.8,32.5c-3.4,0-6.2-2.7-6.2-6.2s2.8-6.2,6.2-6.2s6.2,2.8,6.2,6.2S72.3,32.5,68.8,32.5z"/>
	<path fill="#FFFFFF" d="M25.9,34C17.1,34,10,41.2,10,49.9s15.9,29.4,15.9,29.4s15.9-20.7,15.9-29.4S34.7,34,25.9,34z M25.9,56.4
		c-3.6,0-6.5-2.9-6.5-6.5s2.9-6.5,6.5-6.5s6.5,2.9,6.5,6.5S29.5,56.4,25.9,56.4z"/>
	<path fill="#FFFFFF" d="M81.4,88.8H25.9v-4.3h55.5c2.3,0,4.3-1.9,4.3-4.3v-0.6c0-2.3-1.9-4.3-4.3-4.3H51.9c-4.8,0-8.6-3.8-8.6-8.6
		c0-4.7,3.8-8.6,8.6-8.6h16.9v4.2H51.9c-2.3,0-4.2,1.9-4.2,4.3s1.9,4.3,4.2,4.3h29.5c4.8,0,8.6,3.8,8.6,8.6v0.6
		C90,84.9,86.2,88.8,81.4,88.8z"/>
</g>
</svg>
