<?xml version="1.0" encoding="utf-8"?>
<!-- Generator: Adobe Illustrator 18.1.1, SVG Export Plug-In . SVG Version: 6.00 Build 0)  -->
<svg version="1.1" id="Layer_1" xmlns="http://www.w3.org/2000/svg" xmlns:xlink="http://www.w3.org/1999/xlink" x="0px" y="0px"
	 viewBox="0 0 100 100" enable-background="new 0 0 100 100" xml:space="preserve">
<g>
	<path fill="#FFFFFF" d="M49.9,6L6.5,41.8c5.7,3.7,12.3,6.8,19.5,8.9c7.5,2.2,15.6,3.4,24.1,3.4s16.6-1.2,24.1-3.4
		c7.1-2.1,13.6-5.1,19.2-8.8L49.9,6z"/>
	<path fill="#FFFFFF" d="M22.5,53.1c0,0,2.7,2.4,8.2,2.1L47.6,73c0,0,2.4-0.6,3.7,0.8c0,0,16.3-15.4,18.1-18.1c0,0,5.5,0.3,7.9-1.8
		l-25,22.1c0,0-0.3,1.8-1.1,2.7c0,0-0.3,4,4.2,5.4c4.5,1.3,5.1,5.1,5.1,5.1l-3.7,2.7c0,0,0.6-3.2-4-5.4S50,78.9,50,78.9l-1.9-0.3
		c0,0-0.6,4.5,1.8,7.2c2.4,2.7,2.7,7.7,2.7,7.7L47,94c0,0,3.2-3.4-0.6-7.2c-3.7-3.7,0.8-10.3,0.8-10.3S26.6,57.3,22.5,53.1z"/>
</g>
</svg>
